PathFileType	4	(X/Y/Z)	Walk8.trc
DataRate	CameraRate	NumFrames	NumMarkers	Units	OrigDataRate	OrigDataStartFrame	OrigNumFrames
200.000000	200.000000	7	61	mm	200.000000	592	735
Frame#	Times		RCAR		LToe		LMT5		RWRR		LTB4		LMT1		LTB1		LTB3		RWRU		LLFC		RACR1		LUA1		LFA1		LElbow		STRN		LCAR		RFHD		RTH3		LACR1		LASI		LWRU		RTB2		RLFC		C7		LPSI		LWRR		RToe		RMT1		RMT5		LFHD		RPSI		LMFC		RMFC		CLAV		RTH2		RTB1		LTH3		RTB4		RTB3		LTH2		RCAL		LTH1		RASI		LTH4		RFA1		LTB2		RLMAL		RMMAL		LBHD		RBHD		RElbow		RUA1		RTH4		RBack		LMMAL		RTH1		LCAL		T10		LElbowM		LLMAL		RElbowM
			X1	Y1	Z1	X2	Y2	Z2	X3	Y3	Z3	X4	Y4	Z4	X5	Y5	Z5	X6	Y6	Z6	X7	Y7	Z7	X8	Y8	Z8	X9	Y9	Z9	X10	Y10	Z10	X11	Y11	Z11	X12	Y12	Z12	X13	Y13	Z13	X14	Y14	Z14	X15	Y15	Z15	X16	Y16	Z16	X17	Y17	Z17	X18	Y18	Z18	X19	Y19	Z19	X20	Y20	Z20	X21	Y21	Z21	X22	Y22	Z22	X23	Y23	Z23	X24	Y24	Z24	X25	Y25	Z25	X26	Y26	Z26	X27	Y27	Z27	X28	Y28	Z28	X29	Y29	Z29	X30	Y30	Z30	X31	Y31	Z31	X32	Y32	Z32	X33	Y33	Z33	X34	Y34	Z34	X35	Y35	Z35	X36	Y36	Z36	X37	Y37	Z37	X38	Y38	Z38	X39	Y39	Z39	X40	Y40	Z40	X41	Y41	Z41	X42	Y42	Z42	X43	Y43	Z43	X44	Y44	Z44	X45	Y45	Z45	X46	Y46	Z46	X47	Y47	Z47	X48	Y48	Z48	X49	Y49	Z49	X50	Y50	Z50	X51	Y51	Z51	X52	Y52	Z52	X53	Y53	Z53	X54	Y54	Z54	X55	Y55	Z55	X56	Y56	Z56	X57	Y57	Z57	X58	Y58	Z58	X59	Y59	Z59	X60	Y60	Z60	X61	Y61	Z61

592	2.96	787.94	901.14	389.16	1027	117.93	-33.074	939.67	79.656	-102.9	719.61	912.28	391.27	795.18	306.7	-12.186	972.59	105.77	-19.705	778.57	389.9	-11.993	815.81	223.31	-13.453	774.39	937.52	325.24	694.92	517.18	-109.28	558.62	1493.1	255.33	512.34	1343.2	-197.46	549.07	1044.5	-253.2	466.23	1176	-243.24	667.23	1288	60.891	593.74	882.25	-266.65	696.84	1686.8	145.22	414	650.33	244.59	536.03	1525.8	-114.67	605.72	1021	-94.946	519.95	914.62	-262.21	390.54	270.83	192.53	396.06	510.31	229.46	442.68	1553.7	84.77	376.06	1062.5	-11.766	599.16	921.22	-211.11	503.75	33.766	107.32	453.14	51.554	93.697	407.71	29.17	191.54	702.02	1692.7	40.151	370.08	1065.7	96.925	712.27	514.2	32.05	395.65	509.38	80.2	606.89	1462.3	56.232	480.33	728.5	257.32	418.14	359.45	141.65	657.75	650.7	-138.46	394.1	276.39	130.4	369.61	194.61	120.99	674.3	756.43	-140.99	229.26	52.323	111.69	585.87	808.65	-160.75	470.06	1037.7	297.51	622.09	729.67	-151.45	687.93	1052.3	367.14	815.28	310.41	-72.554	292.76	80.025	153.24	326.24	108.58	64.01	535.85	1690.5	12.449	525.41	1686.1	154.1	568.44	1150.6	374.86	571.86	1314.9	328.91	421.15	732.65	254.47	390.43	1428.3	202.66	827.17	120.92	20.923	429.85	819.97	266.34	759.02	45.336	-37.853	391.09	1198.4	46.813	436.53	1149.9	-157.16	813.78	91.603	-78.209	534.88	1117	289.91
593	2.965	793.55	900.72	388.47	1038	122.07	-32.97	951.56	81.991	-102.83	725.2	911.78	390.73	802.56	306.56	-12.234	983.89	108.84	-19.65	784.31	389.48	-12.013	824.84	223.58	-13.54	779.89	937.07	324.59	698.37	515.5	-109.44	563.59	1492.3	254.74	517.86	1342.3	-197.89	554.31	1043.5	-253.37	471.74	1175.2	-243.61	672.31	1287.2	60.49	598.62	881.04	-266.69	701.89	1686	144.72	417.08	650.27	244.25	541.34	1525	-115.2	611.04	1020.1	-95.2	524.93	913.72	-262.68	391.72	270.77	192.32	398.49	510.35	229.17	447.73	1553	84.116	381.27	1061.7	-12.258	603.89	919.99	-211.12	503.81	33.757	107.29	453.27	51.563	93.686	407.66	29.121	191.38	707.12	1691.9	39.648	375.17	1065	96.378	715.27	512.41	32.21	398.45	509.31	79.914	611.98	1461.5	55.725	483.79	728.14	257.04	419.9	359.26	141.44	660.35	648.51	-138.84	395.43	276.32	130.22	370.47	194.67	120.83	677.56	754.14	-141.32	229.39	53.007	111.37	589.4	806.96	-160.92	470.69	1036.6	300.51	625.18	727.75	-151.73	693.3	1051.7	366.56	822.5	310.65	-72.612	292.96	80.476	152.98	326.67	108.89	63.82	540.96	1689.8	11.855	530.44	1685.3	153.5	573.68	1149.9	374.38	576.93	1314.2	328.37	424.62	732.56	254.19	395.42	1427.6	202	838.07	121.36	20.879	433.7	819.84	266.09	771.4	44.386	-37.972	396.21	1197.6	46.243	441.88	1149.1	-157.56	825.34	91.777	-78.251	540.15	1116.2	289.44
594	2.97	799.11	900.24	387.8	1048.5	126.02	-32.944	962.84	84.188	-102.73	730.73	911.23	390.2	809.72	306.42	-12.258	994.66	111.8	-19.615	789.94	389.04	-12.05	833.54	223.84	-13.568	785.33	936.57	323.95	701.86	513.81	-109.6	568.58	1491.5	254.13	523.4	1341.5	-198.34	559.58	1042.4	-253.55	477.27	1174.3	-244	677.42	1286.5	60.07	603.53	879.82	-266.75	706.94	1685.2	144.2	420.21	650.23	243.91	546.65	1524.3	-115.77	616.39	1019.1	-95.453	529.94	912.8	-263.17	392.95	270.71	192.14	400.99	510.39	228.9	452.8	1552.2	83.432	386.52	1061	-12.773	608.64	918.75	-211.16	503.85	33.755	107.26	453.38	51.579	93.681	407.62	29.069	191.22	712.24	1691.1	39.122	380.29	1064.4	95.807	718.31	510.64	32.341	401.3	509.24	79.648	617.09	1460.7	55.19	487.29	727.79	256.78	421.7	359.08	141.26	663.04	646.37	-139.26	396.79	276.26	130.05	371.35	194.75	120.68	680.89	751.9	-141.69	229.53	53.741	111.11	593	805.3	-161.11	471.69	1035.6	303.3	628.35	725.87	-152.08	698.65	1051.1	365.98	829.47	310.82	-72.661	293.17	80.961	152.76	327.11	109.22	63.659	546.09	1689	11.233	535.48	1684.5	152.87	578.92	1149.2	373.88	582.01	1313.4	327.8	428.12	732.49	253.91	400.42	1426.9	201.32	848.54	121.83	20.945	437.6	819.71	265.83	783.25	43.52	-37.863	401.36	1196.8	45.665	447.24	1148.3	-157.98	836.34	91.947	-78.15	545.37	1115.4	288.96
595	2.975	804.59	899.7	387.15	1058.5	129.71	-32.993	973.48	86.2	-102.6	736.2	910.66	389.66	816.66	306.25	-12.252	1004.9	114.58	-19.6	795.47	388.58	-12.098	841.89	224.06	-13.537	790.71	936.01	323.32	705.4	512.14	-109.76	573.58	1490.7	253.48	528.96	1340.6	-198.82	564.86	1041.4	-253.77	482.82	1173.5	-244.42	682.56	1285.7	59.635	608.45	878.59	-266.83	712	1684.4	143.64	423.4	650.19	243.59	551.99	1523.5	-116.36	621.78	1018.2	-95.707	534.97	911.87	-263.68	394.22	270.68	191.99	403.57	510.45	228.65	457.87	1551.4	82.719	391.81	1060.2	-13.314	613.41	917.51	-211.21	503.88	33.759	107.22	453.48	51.599	93.684	407.59	29.017	191.08	717.36	1690.3	38.572	385.46	1063.7	95.211	721.39	508.91	32.447	404.22	509.16	79.402	622.22	1460	54.629	490.84	727.45	256.54	423.54	358.9	141.09	665.85	644.29	-139.73	398.19	276.22	129.92	372.26	194.85	120.57	684.32	749.72	-142.1	229.66	54.525	110.9	596.69	803.69	-161.32	473.09	1034.5	305.83	631.63	724.03	-152.51	703.97	1050.5	365.4	836.17	310.9	-72.696	293.4	81.483	152.58	327.54	109.58	63.531	551.23	1688.2	10.583	540.53	1683.8	152.21	584.16	1148.4	373.36	587.1	1312.7	327.2	431.67	732.43	253.63	405.45	1426.1	200.61	858.56	122.29	21.116	441.54	819.59	265.56	794.51	42.714	-37.538	406.54	1196	45.078	452.61	1147.5	-158.43	846.75	92.08	-77.913	550.55	1114.5	288.5
596	2.98	810.01	899.12	386.51	1067.8	133.11	-33.113	983.46	87.983	-102.43	741.6	910.05	389.13	823.36	306.04	-12.214	1014.5	117.14	-19.602	800.9	388.07	-12.15	849.87	224.23	-13.444	796.04	935.4	322.7	708.99	510.47	-109.91	578.59	1489.9	252.82	534.53	1339.8	-199.33	570.16	1040.3	-254	488.38	1172.6	-244.87	687.73	1284.9	59.186	613.4	877.34	-266.93	717.07	1683.6	143.07	426.67	650.16	243.28	557.34	1522.7	-116.98	627.21	1017.2	-95.964	540.02	910.93	-264.21	395.54	270.66	191.88	406.22	510.51	228.41	462.96	1550.6	81.977	397.13	1059.4	-13.885	618.2	916.25	-211.28	503.89	33.77	107.17	453.58	51.622	93.696	407.56	28.965	190.95	722.5	1689.5	37.997	390.67	1063	94.587	724.55	507.23	32.532	407.2	509.09	79.18	627.37	1459.2	54.043	494.46	727.13	256.32	425.44	358.74	140.94	668.82	642.29	-140.22	399.62	276.18	129.81	373.19	194.97	120.48	687.87	747.62	-142.54	229.8	55.361	110.76	600.5	802.15	-161.57	474.93	1033.5	308.1	635.03	722.27	-153.01	709.26	1049.8	364.81	842.6	310.87	-72.711	293.64	82.043	152.45	327.97	109.97	63.439	556.38	1687.5	9.9049	545.59	1683	151.52	589.39	1147.7	372.82	592.2	1311.9	326.58	435.27	732.38	253.35	410.49	1425.4	199.88	868.09	122.71	21.388	445.54	819.47	265.28	805.17	41.942	-37.014	411.76	1195.1	44.48	458	1146.7	-158.9	856.56	92.147	-77.55	555.68	1113.7	288.04
597	2.985	815.36	898.48	385.89	1076.6	136.14	-33.293	992.78	89.498	-102.24	746.93	909.41	388.6	829.82	305.75	-12.14	1023.6	119.42	-19.618	806.21	387.52	-12.195	857.47	224.3	-13.29	801.31	934.73	322.09	712.64	508.8	-110.03	583.61	1489.2	252.12	540.1	1338.9	-199.86	575.47	1039.2	-254.27	493.96	1171.6	-245.35	692.93	1284.2	58.723	618.38	876.09	-267.04	722.14	1682.8	142.47	430.01	650.13	242.99	562.7	1521.9	-117.63	632.68	1016.3	-96.227	545.09	909.98	-264.75	396.92	270.66	191.81	408.97	510.57	228.2	468.05	1549.8	81.205	402.5	1058.6	-14.487	623.01	914.99	-211.38	503.89	33.786	107.12	453.66	51.646	93.717	407.54	28.916	190.85	727.64	1688.7	37.396	395.93	1062.3	93.933	727.81	505.6	32.602	410.24	509.02	78.981	632.54	1458.4	53.432	498.15	726.81	256.11	427.38	358.59	140.81	671.98	640.39	-140.71	401.09	276.16	129.73	374.14	195.11	120.42	691.58	745.63	-143.02	229.94	56.25	110.67	604.44	800.68	-161.84	477.22	1032.5	310.09	638.59	720.58	-153.57	714.52	1049.2	364.21	848.77	310.72	-72.699	293.9	82.643	152.37	328.41	110.39	63.387	561.54	1686.7	9.1982	550.66	1682.2	150.8	594.61	1147	372.26	597.31	1311.2	325.94	438.95	732.34	253.08	415.55	1424.6	199.12	877.1	123.06	21.75	449.6	819.37	265	815.18	41.184	-36.315	417.02	1194.3	43.869	463.4	1145.9	-159.41	865.74	92.122	-77.075	560.75	1112.9	287.59
598	2.99	820.65	897.79	385.28	1084.8	138.75	-33.521	1001.4	90.707	-102.02	752.19	908.75	388.07	836.02	305.39	-12.026	1032.1	121.38	-19.642	811.41	386.89	-12.224	864.68	224.26	-13.076	806.52	934.02	321.5	716.36	507.15	-110.13	588.64	1488.4	251.4	545.69	1338	-200.43	580.81	1038.1	-254.55	499.55	1170.7	-245.85	698.16	1283.4	58.246	623.37	874.83	-267.18	727.22	1682	141.84	433.43	650.11	242.72	568.08	1521.1	-118.3	638.18	1015.3	-96.499	550.19	909.01	-265.31	398.35	270.69	191.77	411.8	510.64	228.01	473.16	1549	80.404	407.91	1057.8	-15.124	627.85	913.72	-211.5	503.88	33.809	107.06	453.74	51.67	93.746	407.53	28.869	190.76	732.79	1687.9	36.77	401.24	1061.7	93.248	731.16	504.02	32.661	413.34	508.94	78.805	637.72	1457.7	52.798	501.92	726.5	255.9	429.38	358.45	140.7	675.33	638.61	-141.2	402.59	276.14	129.68	375.11	195.28	120.39	695.45	743.75	-143.54	230.08	57.193	110.65	608.54	799.29	-162.15	479.98	1031.5	311.78	642.32	718.99	-154.17	719.75	1048.5	363.62	854.67	310.44	-72.653	294.17	83.283	152.34	328.84	110.84	63.374	566.71	1685.9	8.4634	555.74	1681.4	150.06	599.83	1146.3	371.68	602.43	1310.5	325.27	442.7	732.31	252.82	420.62	1423.9	198.34	885.57	123.29	22.195	453.75	819.26	264.72	824.51	40.419	-35.468	422.3	1193.4	43.243	468.82	1145.1	-159.94	874.27	91.983	-76.504	565.77	1112.1	287.15
